Thu Dec 19 12:55:57 COT 2013
Parameter 1: /var/www/pyl5/ImageProcessing/Execution/vocabulary.xml
Parameter 2: /var/www/pyl5/www/output/images/dcc020b5f002f80439ff14bf6733930f/script.xml
Parameter 3: /var/www/pyl5/www/output/images/dcc020b5f002f80439ff14bf6733930f/score.xml
Parameter 4: /var/www/pyl5/ImageProcessing
Parameter 5: /var/www/pyl5/www/output/images/dcc020b5f002f80439ff14bf6733930f/SoundFilm.log
Parameter 6: 
Parameter 7: 

ffmpeg version N-42091-gf7cba73 Copyright (c) 2000-2012 the FFmpeg developers
  built on Jul  1 2012 05:10:32 with gcc 4.6.3
  configuration: --prefix=/root/ffmpeg-static/32bit --arch=x86_32 --extra-cflags='-m32 -I/root/ffmpeg-static/32bit/include -static' --extra-ldflags='-m32 -L/root/ffmpeg-static/32bit/lib -static' --extra-libs='-lxml2 -lexpat -lfreetype' --enable-static --disable-shared --disable-ffserver --disable-doc --enable-bzlib --enable-zlib --enable-postproc --enable-runtime-cpudetect --enable-libx264 --enable-gpl --enable-libtheora --enable-libvorbis --enable-libmp3lame --enable-gray --enable-libass --enable-libfreetype --enable-libopenjpeg --enable-libspeex --enable-libvo-aacenc --enable-libvo-amrwbenc --enable-version3 --enable-libvpx
  libavutil      51. 63.100 / 51. 63.100
  libavcodec     54. 31.100 / 54. 31.100
  libavformat    54. 14.100 / 54. 14.100
  libavdevice    54.  0.100 / 54.  0.100
  libavfilter     3.  0.100 /  3.  0.100
  libswscale      2.  1.100 /  2.  1.100
  libswresample   0. 15.100 /  0. 15.100
  libpostproc    52.  0.100 / 52.  0.100
Guessed Channel Layout for  Input Stream #0.0 : stereo
Input #0, wav, from '/var/www/pyl5/www/output/images/dcc020b5f002f80439ff14bf6733930f/tmpgarage.wav':
  Duration: 00:00:03.91, bitrate: 1411 kb/s
    Stream #0:0: Audio: pcm_s16le ([1][0][0][0] / 0x0001), 44100 Hz, stereo, s16, 1411 kb/s
[graph 0 input from stream 0:0 @ 0xb12eb60] tb:1/44100 samplefmt:s16 samplerate:44100 chlayout:0x3
Output #0, mp3, to '/var/www/pyl5/www/output/images/dcc020b5f002f80439ff14bf6733930f/walk001.wav.mp3':
  Metadata:
    TSSE            : Lavf54.14.100
    Stream #0:0: Audio: mp3, 44100 Hz, stereo, s16, 128 kb/s
Stream mapping:
  Stream #0:0 -> #0:0 (pcm_s16le -> libmp3lame)
Press [q] to stop, [?] for help
size=      50kB time=00:00:03.16 bitrate= 130.2kbits/s    size=      62kB time=00:00:03.91 bitrate= 129.7kbits/s    
video:0kB audio:62kB subtitle:0 global headers:0kB muxing overhead 0.716198%
ffmpeg version N-42091-gf7cba73 Copyright (c) 2000-2012 the FFmpeg developers
  built on Jul  1 2012 05:10:32 with gcc 4.6.3
  configuration: --prefix=/root/ffmpeg-static/32bit --arch=x86_32 --extra-cflags='-m32 -I/root/ffmpeg-static/32bit/include -static' --extra-ldflags='-m32 -L/root/ffmpeg-static/32bit/lib -static' --extra-libs='-lxml2 -lexpat -lfreetype' --enable-static --disable-shared --disable-ffserver --disable-doc --enable-bzlib --enable-zlib --enable-postproc --enable-runtime-cpudetect --enable-libx264 --enable-gpl --enable-libtheora --enable-libvorbis --enable-libmp3lame --enable-gray --enable-libass --enable-libfreetype --enable-libopenjpeg --enable-libspeex --enable-libvo-aacenc --enable-libvo-amrwbenc --enable-version3 --enable-libvpx
  libavutil      51. 63.100 / 51. 63.100
  libavcodec     54. 31.100 / 54. 31.100
  libavformat    54. 14.100 / 54. 14.100
  libavdevice    54.  0.100 / 54.  0.100
  libavfilter     3.  0.100 /  3.  0.100
  libswscale      2.  1.100 /  2.  1.100
  libswresample   0. 15.100 /  0. 15.100
  libpostproc    52.  0.100 / 52.  0.100
Guessed Channel Layout for  Input Stream #0.0 : stereo
Input #0, wav, from '/var/www/pyl5/www/output/images/dcc020b5f002f80439ff14bf6733930f/tmpgarage.wav':
  Duration: 00:00:03.91, bitrate: 1411 kb/s
    Stream #0:0: Audio: pcm_s16le ([1][0][0][0] / 0x0001), 44100 Hz, stereo, s16, 1411 kb/s
[graph 0 input from stream 0:0 @ 0x9694b60] tb:1/44100 samplefmt:s16 samplerate:44100 chlayout:0x3
Output #0, mp3, to '/var/www/pyl5/www/output/images/dcc020b5f002f80439ff14bf6733930f/walk001.wav.mp3':
  Metadata:
    TSSE            : Lavf54.14.100
    Stream #0:0: Audio: mp3, 44100 Hz, stereo, s16, 128 kb/s
Stream mapping:
  Stream #0:0 -> #0:0 (pcm_s16le -> libmp3lame)
Press [q] to stop, [?] for help
size=      62kB time=00:00:03.91 bitrate= 129.7kbits/s    
video:0kB audio:62kB subtitle:0 global headers:0kB muxing overhead 0.716198%
ffmpeg version N-42091-gf7cba73 Copyright (c) 2000-2012 the FFmpeg developers
  built on Jul  1 2012 05:10:32 with gcc 4.6.3
  configuration: --prefix=/root/ffmpeg-static/32bit --arch=x86_32 --extra-cflags='-m32 -I/root/ffmpeg-static/32bit/include -static' --extra-ldflags='-m32 -L/root/ffmpeg-static/32bit/lib -static' --extra-libs='-lxml2 -lexpat -lfreetype' --enable-static --disable-shared --disable-ffserver --disable-doc --enable-bzlib --enable-zlib --enable-postproc --enable-runtime-cpudetect --enable-libx264 --enable-gpl --enable-libtheora --enable-libvorbis --enable-libmp3lame --enable-gray --enable-libass --enable-libfreetype --enable-libopenjpeg --enable-libspeex --enable-libvo-aacenc --enable-libvo-amrwbenc --enable-version3 --enable-libvpx
  libavutil      51. 63.100 / 51. 63.100
  libavcodec     54. 31.100 / 54. 31.100
  libavformat    54. 14.100 / 54. 14.100
  libavdevice    54.  0.100 / 54.  0.100
  libavfilter     3.  0.100 /  3.  0.100
  libswscale      2.  1.100 /  2.  1.100
  libswresample   0. 15.100 /  0. 15.100
  libpostproc    52.  0.100 / 52.  0.100
Guessed Channel Layout for  Input Stream #0.0 : stereo
Input #0, wav, from '/var/www/pyl5/www/output/images/dcc020b5f002f80439ff14bf6733930f/tmpgarage.wav':
  Duration: 00:00:02.35, bitrate: 1411 kb/s
    Stream #0:0: Audio: pcm_s16le ([1][0][0][0] / 0x0001), 44100 Hz, stereo, s16, 1411 kb/s
[graph 0 input from stream 0:0 @ 0x99d1300] tb:1/44100 samplefmt:s16 samplerate:44100 chlayout:0x3
Output #0, mp3, to '/var/www/pyl5/www/output/images/dcc020b5f002f80439ff14bf6733930f/walk001.wav.mp3':
  Metadata:
    TSSE            : Lavf54.14.100
    Stream #0:0: Audio: mp3, 44100 Hz, stereo, s16, 128 kb/s
Stream mapping:
  Stream #0:0 -> #0:0 (pcm_s16le -> libmp3lame)
Press [q] to stop, [?] for help
size=      38kB time=00:00:02.35 bitrate= 130.9kbits/s    
video:0kB audio:37kB subtitle:0 global headers:0kB muxing overhead 1.188410%
Hello, SBI!
temporal = /var/www/pyl5/www/output/images/dcc020b5f002f80439ff14bf6733930f/
el script es valido
el vocabulario es valido
listo para los objetos
el objeto que da es Rabbit
el objeto que da es Rabbit
listo para los actores
el actor que da es SBCamera
el actor que da es Rabbit
el objeto que da es Rabbit
es fondo o voz
es el por defecto
el sonido por defecto del actor es RabbitDefault
hola
you can do it
you can do it
you can do it
temporal string = /var/www/pyl5/www/output/images/dcc020b5f002f80439ff14bf6733930f/
copiando /var/www/pyl5/ImageProcessing/SoundFilm/walk001.wav en /var/www/pyl5/www/output/images/dcc020b5f002f80439ff14bf6733930f/tmp_1.wav
copiando /var/www/pyl5/ImageProcessing/SoundFilm/walk001.wav en /var/www/pyl5/www/output/images/dcc020b5f002f80439ff14bf6733930f/tmp_2.wav
copiando /var/www/pyl5/ImageProcessing/SoundFilm/walk001.wav en /var/www/pyl5/www/output/images/dcc020b5f002f80439ff14bf6733930f/tmp_3.wav
copiando /var/www/pyl5/ImageProcessing/SoundFilm/walk001.wav en /var/www/pyl5/www/output/images/dcc020b5f002f80439ff14bf6733930f/tmp_4.wav
copiando /var/www/pyl5/ImageProcessing/SoundFilm/walk001.wav en /var/www/pyl5/www/output/images/dcc020b5f002f80439ff14bf6733930f/tmp_5.wav
tu
el actor es ::Rabbit::
la animacion del actor es ::-default-::
la de la acciones ::WALK::
el actor es ::Rabbit::
la animacion del actor es ::-default-::
la de la acciones ::JUMP::
el actor que da es Apple
el actor que da es Rabbit
el objeto que da es Rabbit
es fondo o voz
es el por defecto
el sonido por defecto del actor es RabbitDefault
hola
you can do it
you can do it
you can do it
temporal string = /var/www/pyl5/www/output/images/dcc020b5f002f80439ff14bf6733930f/
copiando /var/www/pyl5/ImageProcessing/SoundFilm/walk001.wav en /var/www/pyl5/www/output/images/dcc020b5f002f80439ff14bf6733930f/tmp_1.wav
copiando /var/www/pyl5/ImageProcessing/SoundFilm/walk001.wav en /var/www/pyl5/www/output/images/dcc020b5f002f80439ff14bf6733930f/tmp_2.wav
copiando /var/www/pyl5/ImageProcessing/SoundFilm/walk001.wav en /var/www/pyl5/www/output/images/dcc020b5f002f80439ff14bf6733930f/tmp_3.wav
copiando /var/www/pyl5/ImageProcessing/SoundFilm/walk001.wav en /var/www/pyl5/www/output/images/dcc020b5f002f80439ff14bf6733930f/tmp_4.wav
copiando /var/www/pyl5/ImageProcessing/SoundFilm/walk001.wav en /var/www/pyl5/www/output/images/dcc020b5f002f80439ff14bf6733930f/tmp_5.wav
tu
el actor es ::Rabbit::
la animacion del actor es ::WALK::
la de la acciones ::WALK::
hay el evento y su sonido es RabbitWalk::oiga
pero puede ser Default::oiga
es el por defectoel sonido por defecto de la accion es RabbitWalk
es periodico ... 
creando un foley periodico... 
copiando /var/www/pyl5/ImageProcessing/SoundFilm/walk001.wav en /var/www/pyl5/www/output/images/dcc020b5f002f80439ff14bf6733930f/tmp_1.wav
copiando /var/www/pyl5/ImageProcessing/SoundFilm/walk001.wav en /var/www/pyl5/www/output/images/dcc020b5f002f80439ff14bf6733930f/tmp_2.wav
copiando /var/www/pyl5/ImageProcessing/SoundFilm/walk001.wav en /var/www/pyl5/www/output/images/dcc020b5f002f80439ff14bf6733930f/tmp_3.wav
el actor es ::Rabbit::
la animacion del actor es ::WALK::
la de la acciones ::JUMP::
el actor que da es Butterfly
el actor que da es Chinchilla
el actor que da es Butterfly
el objeto que da es Squirrel
el objeto que da es Squirrel
listo para los actores
el actor que da es SBCamera
el actor que da es Rabbit
el actor que da es Apple
el actor que da es Rabbit
el actor que da es Butterfly
el actor que da es Chinchilla
el actor que da es Butterfly
el objeto que da es Chinchilla
el objeto que da es Chinchilla
listo para los actores
el actor que da es SBCamera
el actor que da es Rabbit
el actor que da es Apple
el actor que da es Rabbit
el actor que da es Butterfly
el actor que da es Chinchilla
el objeto que da es Chinchilla
es fondo o voz
es el por defecto
el sonido por defecto del actor es ChinchillaDefault
hola
you can do it
you can do it
you can do it
temporal string = /var/www/pyl5/www/output/images/dcc020b5f002f80439ff14bf6733930f/
copiando /var/www/pyl5/ImageProcessing/SoundFilm/chinchilla.wav effmpeg version N-42091-gf7cba73 Copyright (c) 2000-2012 the FFmpeg developers
  built on Jul  1 2012 05:10:32 with gcc 4.6.3
  configuration: --prefix=/root/ffmpeg-static/32bit --arch=x86_32 --extra-cflags='-m32 -I/root/ffmpeg-static/32bit/include -static' --extra-ldflags='-m32 -L/root/ffmpeg-static/32bit/lib -static' --extra-libs='-lxml2 -lexpat -lfreetype' --enable-static --disable-shared --disable-ffserver --disable-doc --enable-bzlib --enable-zlib --enable-postproc --enable-runtime-cpudetect --enable-libx264 --enable-gpl --enable-libtheora --enable-libvorbis --enable-libmp3lame --enable-gray --enable-libass --enable-libfreetype --enable-libopenjpeg --enable-libspeex --enable-libvo-aacenc --enable-libvo-amrwbenc --enable-version3 --enable-libvpx
  libavutil      51. 63.100 / 51. 63.100
  libavcodec     54. 31.100 / 54. 31.100
  libavformat    54. 14.100 / 54. 14.100
  libavdevice    54.  0.100 / 54.  0.100
  libavfilter     3.  0.100 /  3.  0.100
  libswscale      2.  1.100 /  2.  1.100
  libswresample   0. 15.100 /  0. 15.100
  libpostproc    52.  0.100 / 52.  0.100
[wav @ 0x9d22660] max_analyze_duration 5000000 reached at 5015510
Guessed Channel Layout for  Input Stream #0.0 : mono
Input #0, wav, from '/var/www/pyl5/www/output/images/dcc020b5f002f80439ff14bf6733930f/tmpgarage.wav':
  Duration: 00:00:07.35, bitrate: 705 kb/s
    Stream #0:0: Audio: pcm_s16le ([1][0][0][0] / 0x0001), 44100 Hz, mono, s16, 705 kb/s
[graph 0 input from stream 0:0 @ 0x9d28900] tb:1/44100 samplefmt:s16 samplerate:44100 chlayout:0x4
Output #0, mp3, to '/var/www/pyl5/www/output/images/dcc020b5f002f80439ff14bf6733930f/chinchilla.wav.mp3':
  Metadata:
    TSSE            : Lavf54.14.100
    Stream #0:0: Audio: mp3, 44100 Hz, mono, s16, 128 kb/s
Stream mapping:
  Stream #0:0 -> #0:0 (pcm_s16le -> libmp3lame)
Press [q] to stop, [?] for help
size=     116kB time=00:00:07.36 bitrate= 128.9kbits/s    
video:0kB audio:116kB subtitle:0 global headers:0kB muxing overhead 0.382138%
n /var/www/pyl5/www/output/images/dcc020b5f002f80439ff14bf6733930f/tmp_1.wav
copiando /var/www/pyl5/ImageProcessing/SoundFilm/chinchilla.wav en /var/www/pyl5/www/output/images/dcc020b5f002f80439ff14bf6733930f/tmp_2.wav
copiando /var/www/pyl5/ImageProcessing/SoundFilm/chinchilla.wav en /var/www/pyl5/www/output/images/dcc020b5f002f80439ff14bf6733930f/tmp_3.wav
copiando /var/www/pyl5/ImageProcessing/SoundFilm/chinchilla.wav en /var/www/pyl5/www/output/images/dcc020b5f002f80439ff14bf6733930f/tmp_4.wav
copiando /var/www/pyl5/ImageProcessing/SoundFilm/chinchilla.wav en /var/www/pyl5/www/output/images/dcc020b5f002f80439ff14bf6733930f/tmp_5.wav
tu
el actor es ::Chinchilla::
la animacion del actor es ::-default-::
la de la acciones ::EAT::
el actor es ::Chinchilla::
la animacion del actor es ::-default-::
la de la acciones ::RUN::
el actor que da es Butterfly
el objeto que da es Butterfly
el objeto que da es Butterfly
listo para los actores
el actor que da es SBCamera
el actor que da es Rabbit
el actor que da es Apple
el actor que da es Rabbit
el actor que da es Butterfly
el objeto que da es Butterfly
el actor que da es Chinchilla
el actor que da es Butterfly
el objeto que da es Butterfly
el objeto que da es Bird
el objeto que da es Bird
listo para los actores
el actor que da es SBCamera
el actor que da es Rabbit
el actor que da es Apple
el actor que da es Rabbit
el actor que da es Butterfly
el actor que da es Chinchilla
el actor que da es Butterfly
el objeto que da es FlyingSquirrel
el objeto que da es FlyingSquirrel
listo para los actores
el actor que da es SBCamera
el actor que da es Rabbit
el actor que da es Apple
el actor que da es Rabbit
el actor que da es Butterfly
el actor que da es Chinchilla
el actor que da es Butterfly
el objeto que da es Apple
el objeto que da es Apple
listo para los actores
el actor que da es SBCamera
el actor que da es Rabbit
el actor que da es Apple
el objeto que da es Apple
el actor que da es Rabbit
el actor que da es Butterfly
el actor que da es Chinchilla
el actor que da es Butterfly
el objeto que da es SBCamera
el objeto que da es SBCamera
listo para los actores
el actor que da es SBCamera
el objeto que da es SBCamera
el actor que da es Rabbit
el actor que da es Apple
el actor que da es Rabbit
el actor que da es Butterfly
el actor que da es Chinchilla
el actor que da es Butterfly
el objeto que da es SBRectangle
el objeto que da es SBRectangle
listo para los actores
el actor que da es SBCamera
el actor que da es Rabbit
el actor que da es Apple
el actor que da es Rabbit
el actor que da es Butterfly
el actor que da es Chinchilla
el actor que da es Butterfly
sayonara, SBI!

Thu Dec 19 12:56:00 COT 2013
